<?xml version="1.0" encoding="UTF-8" standalone="no"?>
<!-- Created with Inkscape (http://www.inkscape.org/) -->

<svg
   width="148.00342mm"
   height="57.35273mm"
   viewBox="0 0 148.00342 57.35273"
   version="1.1"
   id="svg5"
   inkscape:version="1.1.2 (0a00cf5339, 2022-02-04, custom)"
   sodipodi:docname="fostr.svg"
   xmlns:inkscape="http://www.inkscape.org/namespaces/inkscape"
   xmlns:sodipodi="http://sodipodi.sourceforge.net/DTD/sodipodi-0.dtd"
   xmlns="http://www.w3.org/2000/svg"
   xmlns:svg="http://www.w3.org/2000/svg">
  <sodipodi:namedview
     id="namedview7"
     pagecolor="#ffffff"
     bordercolor="#666666"
     borderopacity="1.0"
     inkscape:pageshadow="2"
     inkscape:pageopacity="0.0"
     inkscape:pagecheckerboard="0"
     inkscape:document-units="mm"
     showgrid="false"
     showguides="true"
     inkscape:guide-bbox="true"
     fit-margin-top="0"
     fit-margin-left="0"
     fit-margin-right="0"
     fit-margin-bottom="0"
     inkscape:zoom="0.94316065"
     inkscape:cx="284.15096"
     inkscape:cy="217.35428"
     inkscape:window-width="1343"
     inkscape:window-height="744"
     inkscape:window-x="23"
     inkscape:window-y="0"
     inkscape:window-maximized="1"
     inkscape:current-layer="layer1" />
  <defs
     id="defs2">
    <rect
       x="112.38806"
       y="462.27542"
       width="558.75952"
       height="119.43505"
       id="rect14765" />
  </defs>
  <g
     inkscape:label="Layer 1"
     inkscape:groupmode="layer"
     id="layer1"
     transform="translate(-29.650225,-90.841257)">
    <g
       aria-label="FOSTR"
       id="text4191"
       style="font-size:42.3333px;line-height:1.25;font-family:'Major Mono Display';-inkscape-font-specification:'Major Mono Display';stroke-width:0.264583">
      <path
         d="m 51.839113,91.687923 v 1.566333 H 31.561462 v 9.440324 h 16.255987 v 7.45066 H 31.561462 V 121.1519 H 29.99513 V 91.687923 Z"
         id="path32965" />
      <path
         d="m 59.205098,103.16025 q 0,-3.301999 1.650999,-6.138331 1.650998,-2.836331 4.444996,-4.48733 2.836332,-1.650998 6.180662,-1.650998 3.344331,0 6.138329,1.650998 2.836331,1.650999 4.48733,4.48733 1.650999,2.836332 1.650999,6.138331 v 6.51933 q 0,3.30199 -1.650999,6.13833 -1.650999,2.83633 -4.48733,4.48733 -2.793998,1.65099 -6.138329,1.65099 -3.34433,0 -6.180662,-1.65099 -2.793998,-1.651 -4.444996,-4.48733 -1.650999,-2.83634 -1.650999,-6.13833 z m 7.704661,6.51933 q 0,2.032 1.269999,3.47133 1.269999,1.43933 3.301997,1.43933 1.989666,0 3.259665,-1.43933 1.269999,-1.43933 1.269999,-3.47133 v -6.56167 q 0,-2.07433 -1.269999,-3.471326 -1.269999,-1.396999 -3.259665,-1.396999 -2.031998,0 -3.301997,1.396999 -1.269999,1.396996 -1.269999,3.471326 z"
         id="path32967" />
      <path
         d="m 103.02006,121.9139 q -6.138333,0 -9.482664,-2.87866 -3.301998,-2.921 -3.259664,-8.72066 h 6.900328 q -0.04233,2.41299 1.439332,3.68299 1.481668,1.27 4.148668,1.27 2.20133,0 3.47133,-0.71966 1.27,-0.71967 1.27,-2.20134 0,-1.22766 -1.31234,-1.77799 -1.27,-0.55034 -2.54,-0.762 -1.26999,-0.254 -1.56633,-0.29634 -3.259662,-0.635 -5.630326,-1.524 -2.370665,-0.93133 -3.979331,-2.79399 -1.608665,-1.86267 -1.608665,-4.91067 0,-3.047994 1.608665,-5.164659 1.608666,-2.158999 4.275664,-3.217331 2.709331,-1.058333 5.884333,-1.058333 3.85233,0 6.64632,1.439333 2.83634,1.439332 4.445,4.36033 0.80433,1.396999 0.97367,2.709331 0.16933,1.269999 0.16933,2.497669 h -6.90033 q 0,-2.286003 -1.22766,-3.344335 -1.22767,-1.100666 -3.81,-1.100666 -2.07433,0 -3.217332,0.719666 -1.142999,0.719666 -1.142999,1.947335 0,1.35466 1.524001,1.98966 1.524,0.635 3.85233,1.143 3.81,0.762 5.92666,1.48167 2.159,0.67733 3.72533,2.45533 1.56633,1.778 1.56633,4.99533 0,3.048 -1.69333,5.24933 -1.69333,2.20133 -4.48733,3.38666 -2.75166,1.143 -5.96899,1.143 z"
         id="path32969" />
      <path
         d="M 133.37303,121.1519 V 99.138584 h -11.13366 v -7.450661 h 23.79131 v 7.450661 H 134.89703 V 121.1519 Z"
         id="path32971" />
      <path
         d="M 177.65365,121.1519 H 155.00533 V 91.687923 h 11.47232 q 3.683,0 6.01133,1.312333 2.286,1.269999 3.556,3.47133 1.27,2.201332 1.27,4.868334 0,3.30199 -2.032,5.92666 -2.032,2.58233 -5.12233,3.429 z m -19.98132,-27.897644 11.51466,16.086654 q 2.83633,-0.59267 4.69899,-2.83633 1.86267,-2.24367 1.86267,-5.16466 0,-2.328335 -1.143,-4.233334 -1.143,-1.904999 -3.21733,-2.920998 -1.86267,-0.931332 -4.86833,-0.931332 z m -1.10067,1.015999 v 15.197655 h 10.87966 z m 0,25.315315 h 18.11866 l -6.18067,-8.59366 -1.31233,0.0423 h -10.62566 z"
         id="path32973" />
    </g>
    <g
       aria-label="FREE &amp; OPEN SOURCE"
       transform="matrix(0.28581,0,0,0.26458333,-7.7225614,-1.0583333)"
       id="text14763"
       style="font-size:53.3333px;line-height:1.25;font-family:'Anonymous Pro';-inkscape-font-specification:'Anonymous Pro';text-align:center;text-anchor:middle;white-space:pre;shape-inside:url(#rect14765)">
      <path
         d="m 152.73224,481.62434 h -18.15103 v 12.16145 h 13.38541 v 3.04687 h -13.38541 v 15.72916 h -3.56771 v -33.98436 h 21.71874 z"
         id="path32934" />
      <path
         d="m 183.43535,512.56182 h -4.53125 l -9.92187,-14.55728 h -5.28646 v 14.55728 h -3.5677 v -33.98436 h 11.19791 q 5.59895,0 8.67187,2.44792 3.07291,2.42187 3.07291,7.26562 0,2.13542 -0.7552,3.85416 -0.75521,1.69271 -2.0573,2.89063 -1.30208,1.19791 -3.12499,1.92708 -1.79688,0.72917 -3.93229,0.88542 z m -4.0625,-24.27082 q 0,-3.46354 -2.16146,-5.05208 -2.13541,-1.61458 -5.88541,-1.61458 h -7.63021 v 13.33332 h 7.63021 q 3.75,0 5.88541,-1.5625 2.16146,-1.58854 2.16146,-5.10416 z"
         id="path32936" />
      <path
         d="m 210.96137,512.56182 h -21.71873 v -33.98436 h 21.71873 v 3.04688 h -18.15103 v 12.16145 h 13.38541 v 3.04687 h -13.38541 v 12.68229 h 18.15103 z"
         id="path32938" />
      <path
         d="m 240.07594,512.56182 h -21.71873 v -33.98436 h 21.71873 v 3.04688 h -18.15103 v 12.16145 h 13.38541 v 3.04687 h -13.38541 v 12.68229 h 18.15103 z"
         id="path32940" />
      <path
         d="m 300.20611,497.84829 q -0.46875,2.23958 -1.51042,4.5052 -1.04166,2.26563 -2.57812,4.29687 l 4.08854,3.82813 -2.44792,2.78645 -4.08853,-4.01041 q -1.92709,1.71875 -4.27084,2.8125 -2.34374,1.09375 -5.07812,1.09375 -1.97916,0 -3.75,-0.72917 -1.74479,-0.72917 -3.04687,-1.97916 -1.30208,-1.25 -2.08333,-2.91667 -0.78125,-1.69271 -0.78125,-3.67187 0,-1.64063 0.36458,-2.99479 0.33854,-1.38021 0.9375,-2.47396 0.625,-1.09375 1.45833,-1.95312 0.83334,-0.88542 1.79688,-1.64063 -1.61458,-2.03125 -2.5,-4.01041 -0.88542,-2.00521 -0.88542,-4.03646 0,-4.01041 2.31771,-6.3802 2.34375,-2.36979 6.22396,-2.36979 1.77083,0 3.30729,0.54687 1.56249,0.52084 2.70833,1.51042 1.14583,0.98958 1.77083,2.39583 0.65104,1.40625 0.65104,3.22917 0,2.03124 -0.80729,3.46353 -0.80729,1.4323 -2.03125,2.52604 -1.22396,1.09375 -2.78646,1.97917 -1.53645,0.88542 -3.02083,1.84896 l 9.375,8.80208 q 1.25,-1.71875 2.03125,-3.59375 0.80729,-1.90104 1.22395,-3.72396 z m -15.88541,11.87499 q 2.03125,0 3.77604,-0.75521 1.77083,-0.78125 3.15104,-2.05729 l -8.95833,-8.74999 -0.78125,-0.75521 q -1.35416,1.17187 -2.18749,2.70833 -0.8073,1.51042 -0.8073,3.75 0,2.5 1.61459,4.1927 1.64062,1.66667 4.1927,1.66667 z m -4.79166,-22.96874 q 0,1.22396 0.44271,2.78646 0.46875,1.53646 1.95312,3.48958 1.32812,-0.78125 2.63021,-1.53646 1.32812,-0.7552 2.3177,-1.58854 1.01563,-0.85937 1.61459,-1.90104 0.625,-1.04166 0.625,-2.42187 0,-2.03125 -1.35417,-3.20312 -1.35417,-1.17188 -3.38541,-1.17188 -1.1198,0 -2.03125,0.46875 -0.88542,0.44271 -1.53646,1.22396 -0.65104,0.75521 -0.96354,1.77083 -0.3125,1.01563 -0.3125,2.08333 z"
         id="path32942" />
      <path
         d="m 358.72171,495.6087 q 0,3.41146 -0.70313,6.58854 -0.70312,3.17708 -2.23958,5.59896 -1.53646,2.42187 -4.03645,3.90624 -2.47396,1.45834 -6.04167,1.45834 -3.5677,0 -6.0677,-1.45834 -2.47396,-1.48437 -4.03646,-3.90624 -1.53645,-2.42188 -2.21354,-5.59896 -0.70312,-3.17708 -0.70312,-6.58854 0,-3.41145 0.70312,-6.58853 0.67709,-3.17709 2.23958,-5.625 1.58855,-2.44792 4.0625,-3.90625 2.5,-1.48437 6.01562,-1.48437 3.51563,0 5.98958,1.48437 2.5,1.45833 4.03646,3.90625 1.53646,2.44791 2.26562,5.625 0.72917,3.17708 0.72917,6.58853 z m -3.59375,0 q 0,-3.35937 -0.65104,-6.04166 -0.625,-2.70833 -1.82292,-4.60937 -1.19791,-1.90104 -2.96874,-2.89062 -1.74479,-1.01563 -3.98438,-1.01563 -2.78645,0 -4.60937,1.30208 -1.79687,1.30209 -2.89062,3.41146 -1.09375,2.10937 -1.53646,4.6875 -0.41667,2.57812 -0.41667,5.15624 0,2.55209 0.41667,5.15625 0.44271,2.57812 1.53646,4.66146 1.09375,2.05729 2.89062,3.38541 1.82292,1.30208 4.60937,1.30208 2.76042,0 4.58333,-1.30208 1.82292,-1.32812 2.91667,-3.38541 1.09375,-2.08334 1.51041,-4.66146 0.41667,-2.60416 0.41667,-5.15625 z"
         id="path32944" />
      <path
         d="m 386.87273,488.291 q 0,4.92187 -3.07291,7.3177 -3.07292,2.39584 -8.61979,2.39584 h -7.68229 v 14.55728 h -3.5677 v -33.98436 h 11.19791 q 5.59895,0 8.67187,2.44792 3.07291,2.42187 3.07291,7.26562 z m -3.56771,0 q 0,-3.51562 -2.21354,-5.07812 -2.21354,-1.58854 -5.91145,-1.58854 h -7.68229 v 13.33332 h 7.68229 q 3.69791,0 5.91145,-1.5625 2.21354,-1.58854 2.21354,-5.10416 z"
         id="path32946" />
      <path
         d="M 414.76334,512.56182 H 393.0446 v -33.98436 h 21.71874 v 3.04688 h -18.15103 v 12.16145 h 13.3854 v 3.04687 h -13.3854 v 12.68229 h 18.15103 z"
         id="path32948" />
      <path
         d="m 443.8779,512.56182 h -4.42708 l -13.72395,-28.74998 v 28.74998 h -3.56771 v -33.98436 h 5.02604 l 13.09895,27.42186 v -27.42186 h 3.59375 z"
         id="path32950" />
      <path
         d="m 502.52372,503.70766 q 0,2.13541 -0.88541,3.8802 -0.88542,1.71875 -2.36979,2.96875 -1.48438,1.25 -3.41146,1.92708 -1.92708,0.67709 -4.01041,0.67709 -2.86459,0 -5.26042,-1.06771 -2.39583,-1.06771 -3.80208,-3.15104 v 3.61979 h -3.02083 v -10.33854 h 3.02083 q 0,1.74479 0.80729,3.20313 0.80729,1.43229 2.05729,2.47395 1.25,1.04167 2.86458,1.64063 1.64063,0.57291 3.33334,0.57291 1.51041,0 2.78645,-0.41666 1.27604,-0.44271 2.23958,-1.22396 0.96354,-0.80729 1.51042,-1.95312 0.57292,-1.14584 0.57292,-2.60417 0,-1.64062 -0.72917,-2.8125 -0.70312,-1.17187 -1.92708,-2.0052 -1.19792,-0.83334 -2.70833,-1.40625 -1.51042,-0.59896 -3.07292,-1.17188 -1.84896,-0.65104 -3.69791,-1.35416 -1.84896,-0.72917 -3.30729,-1.82292 -1.45834,-1.09375 -2.36979,-2.65625 -0.91146,-1.58854 -0.91146,-3.93229 0,-2.08333 0.88541,-3.69791 0.88542,-1.64063 2.31771,-2.76042 1.43229,-1.11979 3.33333,-1.6927 1.90104,-0.59896 3.90625,-0.59896 2.47396,0 4.55729,1.01562 2.10937,1.01563 3.28125,3.09896 v -3.54167 h 3.15104 v 9.71354 h -3.15104 q 0,-1.53646 -0.65104,-2.86458 -0.625,-1.35417 -1.71875,-2.29167 -1.09375,-0.96354 -2.5,-1.51041 -1.40625,-0.57292 -2.96875,-0.57292 -1.38021,0 -2.63021,0.3125 -1.25,0.3125 -2.18749,1.01563 -0.9375,0.67708 -1.51042,1.77083 -0.54688,1.09375 -0.54688,2.60416 0,1.32813 0.65105,2.26563 0.67708,0.9375 1.79687,1.66666 1.11979,0.70313 2.57812,1.30208 1.48438,0.57292 3.02084,1.17188 1.92708,0.67708 3.82812,1.51041 1.90104,0.83334 3.41145,2.00521 1.51042,1.17188 2.47396,2.89063 0.96354,1.6927 0.96354,4.14062 z"
         id="path32952" />
      <path
         d="m 533.40912,495.6087 q 0,3.41146 -0.70313,6.58854 -0.70312,3.17708 -2.23958,5.59896 -1.53646,2.42187 -4.03646,3.90624 -2.47395,1.45834 -6.04166,1.45834 -3.5677,0 -6.0677,-1.45834 -2.47396,-1.48437 -4.03646,-3.90624 -1.53646,-2.42188 -2.21354,-5.59896 -0.70312,-3.17708 -0.70312,-6.58854 0,-3.41145 0.70312,-6.58853 0.67708,-3.17709 2.23958,-5.625 1.58854,-2.44792 4.0625,-3.90625 2.5,-1.48437 6.01562,-1.48437 3.51562,0 5.98958,1.48437 2.5,1.45833 4.03646,3.90625 1.53645,2.44791 2.26562,5.625 0.72917,3.17708 0.72917,6.58853 z m -3.59375,0 q 0,-3.35937 -0.65104,-6.04166 -0.625,-2.70833 -1.82292,-4.60937 -1.19791,-1.90104 -2.96875,-2.89062 -1.74479,-1.01563 -3.98437,-1.01563 -2.78645,0 -4.60937,1.30208 -1.79687,1.30209 -2.89062,3.41146 -1.09375,2.10937 -1.53646,4.6875 -0.41667,2.57812 -0.41667,5.15624 0,2.55209 0.41667,5.15625 0.44271,2.57812 1.53646,4.66146 1.09375,2.05729 2.89062,3.38541 1.82292,1.30208 4.60937,1.30208 2.76042,0 4.58333,-1.30208 1.82292,-1.32812 2.91667,-3.38541 1.09375,-2.08334 1.51041,-4.66146 0.41667,-2.60416 0.41667,-5.15625 z"
         id="path32954" />
      <path
         d="m 560.33618,500.45245 q 0,2.89062 -0.65104,5.23437 -0.625,2.34375 -1.97917,4.01042 -1.32812,1.64062 -3.38541,2.55208 -2.05729,0.91146 -4.86979,0.91146 -2.83854,0 -4.89583,-0.91146 -2.03125,-0.91146 -3.35937,-2.55208 -1.30208,-1.66667 -1.95313,-4.03646 -0.625,-2.36979 -0.625,-5.26041 v -21.82291 h 3.56771 v 21.87499 q 0,1.53646 0.26042,3.25521 0.28646,1.71875 1.06771,3.125 0.80729,1.40624 2.21354,2.34374 1.43229,0.9375 3.72395,0.9375 2.29167,0 3.72396,-0.9375 1.45833,-0.9375 2.23958,-2.34374 0.80729,-1.40625 1.06771,-3.125 0.26041,-1.71875 0.26041,-3.25521 v -21.87499 h 3.59375 z"
         id="path32956" />
      <path
         d="m 591.03929,512.56182 h -4.53125 l -9.92187,-14.55728 h -5.28646 v 14.55728 h -3.5677 v -33.98436 h 11.19791 q 5.59895,0 8.67187,2.44792 3.07291,2.42187 3.07291,7.26562 0,2.13542 -0.75521,3.85416 -0.7552,1.69271 -2.05729,2.89063 -1.30208,1.19791 -3.12499,1.92708 -1.79688,0.72917 -3.93229,0.88542 z m -4.0625,-24.27082 q 0,-3.46354 -2.16146,-5.05208 -2.13541,-1.61458 -5.88541,-1.61458 h -7.63021 v 13.33332 h 7.63021 q 3.75,0 5.88541,-1.5625 2.16146,-1.58854 2.16146,-5.10416 z"
         id="path32958" />
      <path
         d="m 620.04968,503.65557 q -1.32812,4.375 -4.34895,6.95313 -3.02084,2.55208 -7.60417,2.55208 -3.5677,0 -6.04166,-1.45834 -2.47396,-1.48437 -4.0625,-3.90624 -1.5625,-2.42188 -2.26562,-5.59896 -0.67708,-3.17708 -0.67708,-6.58854 0,-3.41145 0.67708,-6.58853 0.70312,-3.17709 2.26562,-5.625 1.58854,-2.44792 4.0625,-3.90625 2.47396,-1.48437 6.04166,-1.48437 3.15104,0 5.39063,1.11979 2.23958,1.11979 3.30729,3.41146 v -3.95834 h 3.04687 v 11.14583 h -3.04687 q 0,-1.79687 -0.70313,-3.38541 -0.67708,-1.61459 -1.84896,-2.78646 -1.17187,-1.17187 -2.78645,-1.82292 -1.58854,-0.67708 -3.35938,-0.67708 -2.76041,0 -4.58333,1.30208 -1.79687,1.30209 -2.89062,3.41146 -1.09375,2.10937 -1.5625,4.6875 -0.44271,2.57812 -0.44271,5.15624 0,2.55209 0.44271,5.15625 0.46875,2.57812 1.5625,4.66146 1.09375,2.05729 2.89062,3.38541 1.82292,1.30208 4.58333,1.30208 6.35417,0 8.85417,-7.68228 z"
         id="path32960" />
      <path
         d="m 647.67987,512.56182 h -21.71874 v -33.98436 h 21.71874 v 3.04688 h -18.15103 v 12.16145 h 13.38541 v 3.04687 h -13.38541 v 12.68229 h 18.15103 z"
         id="path32962" />
    </g>
    <g
       aria-label="TOURNAMENT RECORDER"
       transform="scale(1.0079855,0.99207776)"
       id="text26829"
       style="font-size:14.2237px;line-height:1.25;font-family:'Anonymous Pro';-inkscape-font-specification:'Anonymous Pro';stroke-width:0.266696">
      <path
         d="m 35.888224,143.21703 h -0.812585 v -2.25024 h -1.944646 v 7.43828 h 1.458485 v 0.81258 H 30.70713 v -0.81258 h 1.46543 v -7.43828 h -1.944647 v 2.25024 h -0.812584 v -3.06282 h 6.472895 z"
         id="path32897" />
      <path
         d="m 43.895999,144.69635 q 0,0.90982 -0.187519,1.75713 -0.187519,0.84731 -0.597284,1.49321 -0.409765,0.6459 -1.076501,1.04177 -0.659791,0.38893 -1.611278,0.38893 -0.951488,0 -1.618224,-0.38893 -0.659791,-0.39587 -1.076501,-1.04177 -0.409765,-0.6459 -0.590339,-1.49321 -0.187519,-0.84731 -0.187519,-1.75713 0,-0.90982 0.187519,-1.75713 0.180574,-0.84731 0.597284,-1.50015 0.423656,-0.65285 1.083446,-1.04178 0.666736,-0.39587 1.604334,-0.39587 0.937597,0 1.597388,0.39587 0.666736,0.38893 1.0765,1.04178 0.409765,0.65284 0.60423,1.50015 0.194464,0.84731 0.194464,1.75713 z m -0.958432,0 q 0,-0.89593 -0.17363,-1.61128 -0.166684,-0.7223 -0.486161,-1.22929 -0.319478,-0.507 -0.791749,-0.77092 -0.465326,-0.27086 -1.06261,-0.27086 -0.743133,0 -1.229295,0.34726 -0.479216,0.34726 -0.770913,0.90982 -0.291697,0.56255 -0.409765,1.25013 -0.111123,0.68757 -0.111123,1.37514 0,0.68062 0.111123,1.37514 0.118068,0.68757 0.409765,1.24319 0.291697,0.54866 0.770913,0.90287 0.486162,0.34726 1.229295,0.34726 0.736187,0 1.222349,-0.34726 0.486161,-0.35421 0.777858,-0.90287 0.291697,-0.55562 0.40282,-1.24319 0.111123,-0.69452 0.111123,-1.37514 z"
         id="path32899" />
      <path
         d="m 51.077301,145.98815 q 0,0.77091 -0.173629,1.39598 -0.166684,0.62506 -0.527833,1.06955 -0.354203,0.43755 -0.902872,0.68063 -0.548668,0.24308 -1.298746,0.24308 -0.757023,0 -1.305691,-0.24308 -0.541723,-0.24308 -0.895926,-0.68063 -0.347258,-0.44449 -0.520888,-1.0765 -0.166684,-0.63201 -0.166684,-1.40292 v -5.82005 h 0.951488 v 5.83394 q 0,0.40976 0.06945,0.86814 0.0764,0.45839 0.284752,0.83342 0.2153,0.37504 0.590339,0.62507 0.381984,0.25003 0.993158,0.25003 0.611175,0 0.993159,-0.25003 0.388929,-0.25003 0.597284,-0.62507 0.215301,-0.37503 0.284752,-0.83342 0.06945,-0.45838 0.06945,-0.86814 v -5.83394 h 0.958433 z"
         id="path32901" />
      <path
         d="m 59.265652,149.21765 h -1.208459 l -2.646108,-3.88235 h -1.409869 v 3.88235 h -0.951487 v -9.06344 h 2.986421 q 1.493211,0 2.31274,0.65285 0.81953,0.6459 0.81953,1.9377 0,0.5695 -0.20141,1.02788 -0.20141,0.45144 -0.548668,0.77091 -0.347259,0.31948 -0.83342,0.51395 -0.479217,0.19446 -1.04872,0.23613 z m -1.083446,-6.47289 q 0,-0.92371 -0.576449,-1.34737 -0.569503,-0.4306 -1.569607,-0.4306 h -2.034934 v 3.55593 h 2.034934 q 1.000104,0 1.569607,-0.41671 0.576449,-0.42366 0.576449,-1.36125 z"
         id="path32903" />
      <path
         d="m 66.606691,149.21765 h -1.180678 l -3.660103,-7.66746 v 7.66746 h -0.951487 v -9.06344 h 1.340417 l 3.493418,7.31326 v -7.31326 h 0.958433 z"
         id="path32905" />
      <path
         d="m 75.149244,149.21765 h -1.02094 l -0.854255,-2.59055 h -3.583705 l -0.840366,2.59055 h -1.020939 l 3.014202,-9.06344 h 1.291801 z m -2.146056,-3.43091 -1.520992,-4.6741 -1.520991,4.6741 z"
         id="path32907" />
      <path
         d="M 82.136083,149.21765 H 81.17765 v -7.54939 l -1.604333,4.67409 h -0.680626 l -1.597388,-4.67409 v 7.54939 h -0.951488 v -9.06344 h 1.23624 l 1.652949,4.7366 1.66684,-4.7366 h 1.236239 z"
         id="path32909" />
      <path
         d="m 89.900778,149.21765 h -5.792269 v -9.06344 h 5.792269 v 0.81258 h -4.840781 v 3.2434 h 3.569815 v 0.81258 h -3.569815 v 3.3823 h 4.840781 z"
         id="path32911" />
      <path
         d="m 97.665472,149.21765 h -1.180678 l -3.660103,-7.66746 v 7.66746 h -0.951488 v -9.06344 h 1.340417 l 3.493419,7.31326 v -7.31326 h 0.958433 z"
         id="path32913" />
      <path
         d="m 105.77048,143.21703 h -0.81259 v -2.25024 h -1.94464 v 7.43828 h 1.45848 v 0.81258 h -3.88234 v -0.81258 h 1.46543 v -7.43828 h -1.94465 v 2.25024 h -0.812585 v -3.06282 h 6.472895 z"
         id="path32915" />
      <path
         d="m 121.38321,149.21765 h -1.20846 l -2.64611,-3.88235 h -1.40987 v 3.88235 h -0.95148 v -9.06344 h 2.98642 q 1.49321,0 2.31274,0.65285 0.81953,0.6459 0.81953,1.9377 0,0.5695 -0.20141,1.02788 -0.20141,0.45144 -0.54867,0.77091 -0.34726,0.31948 -0.83342,0.51395 -0.47922,0.19446 -1.04872,0.23613 z m -1.08345,-6.47289 q 0,-0.92371 -0.57645,-1.34737 -0.5695,-0.4306 -1.5696,-0.4306 h -2.03494 v 3.55593 h 2.03494 q 1.0001,0 1.5696,-0.41671 0.57645,-0.42366 0.57645,-1.36125 z"
         id="path32917" />
      <path
         d="m 128.72426,149.21765 h -5.79227 v -9.06344 h 5.79227 v 0.81258 h -4.84078 v 3.2434 h 3.56981 v 0.81258 h -3.56981 v 3.3823 h 4.84078 z"
         id="path32919" />
      <path
         d="m 136.88482,146.8424 q -0.3542,1.16679 -1.15984,1.85436 -0.80564,0.68063 -2.02799,0.68063 -0.95148,0 -1.61127,-0.38893 -0.6598,-0.39587 -1.08345,-1.04177 -0.41671,-0.6459 -0.60423,-1.49321 -0.18057,-0.84731 -0.18057,-1.75713 0,-0.90982 0.18057,-1.75713 0.18752,-0.84731 0.60423,-1.50015 0.42365,-0.65285 1.08345,-1.04178 0.65979,-0.39587 1.61127,-0.39587 0.84037,0 1.43765,0.29864 0.59729,0.29864 0.88204,0.90982 v -1.05567 h 0.81258 v 2.97253 h -0.81258 q 0,-0.47922 -0.18752,-0.90287 -0.18057,-0.4306 -0.49311,-0.74313 -0.31253,-0.31254 -0.74313,-0.48616 -0.42365,-0.18058 -0.89593,-0.18058 -0.73618,0 -1.22235,0.34726 -0.47921,0.34726 -0.77091,0.90982 -0.2917,0.56255 -0.41671,1.25013 -0.11807,0.68757 -0.11807,1.37514 0,0.68062 0.11807,1.37514 0.12501,0.68757 0.41671,1.24319 0.2917,0.54866 0.77091,0.90287 0.48617,0.34726 1.22235,0.34726 1.69462,0 2.36136,-2.04883 z"
         id="path32921" />
      <path
         d="m 144.83704,144.69635 q 0,0.90982 -0.18752,1.75713 -0.18752,0.84731 -0.59729,1.49321 -0.40976,0.6459 -1.0765,1.04177 -0.65979,0.38893 -1.61127,0.38893 -0.95149,0 -1.61823,-0.38893 -0.65979,-0.39587 -1.0765,-1.04177 -0.40976,-0.6459 -0.59034,-1.49321 -0.18752,-0.84731 -0.18752,-1.75713 0,-0.90982 0.18752,-1.75713 0.18058,-0.84731 0.59729,-1.50015 0.42365,-0.65285 1.08344,-1.04178 0.66674,-0.39587 1.60434,-0.39587 0.93759,0 1.59738,0.39587 0.66674,0.38893 1.0765,1.04178 0.40977,0.65284 0.60423,1.50015 0.19447,0.84731 0.19447,1.75713 z m -0.95843,0 q 0,-0.89593 -0.17363,-1.61128 -0.16669,-0.7223 -0.48617,-1.22929 -0.31947,-0.507 -0.79174,-0.77092 -0.46533,-0.27086 -1.06261,-0.27086 -0.74314,0 -1.2293,0.34726 -0.47922,0.34726 -0.77091,0.90982 -0.2917,0.56255 -0.40977,1.25013 -0.11112,0.68757 -0.11112,1.37514 0,0.68062 0.11112,1.37514 0.11807,0.68757 0.40977,1.24319 0.29169,0.54866 0.77091,0.90287 0.48616,0.34726 1.2293,0.34726 0.73618,0 1.22234,-0.34726 0.48617,-0.35421 0.77786,-0.90287 0.2917,-0.55562 0.40282,-1.24319 0.11113,-0.69452 0.11113,-1.37514 z"
         id="path32923" />
      <path
         d="m 152.44199,149.21765 h -1.20845 l -2.64611,-3.88235 h -1.40987 v 3.88235 h -0.95149 v -9.06344 h 2.98642 q 1.49321,0 2.31274,0.65285 0.81953,0.6459 0.81953,1.9377 0,0.5695 -0.20141,1.02788 -0.20141,0.45144 -0.54867,0.77091 -0.34725,0.31948 -0.83342,0.51395 -0.47921,0.19446 -1.04872,0.23613 z m -1.08344,-6.47289 q 0,-0.92371 -0.57645,-1.34737 -0.5695,-0.4306 -1.56961,-0.4306 h -2.03493 v 3.55593 h 2.03493 q 1.00011,0 1.56961,-0.41671 0.57645,-0.42366 0.57645,-1.36125 z"
         id="path32925" />
      <path
         d="m 160.42199,144.69635 q 0,0.90982 -0.19447,1.73629 -0.18752,0.81953 -0.61117,1.44459 -0.41671,0.61812 -1.08345,0.97927 -0.65979,0.36115 -1.59738,0.36115 h -2.94476 v -9.06344 h 2.94476 q 0.9237,0 1.58349,0.37504 0.66674,0.36809 1.08345,0.99316 0.42365,0.62506 0.61812,1.44459 0.20141,0.81953 0.20141,1.72935 z m -0.95149,0 q 0,-1.77796 -0.67368,-2.75029 -0.66674,-0.97927 -1.8613,-0.97927 h -1.99327 v 7.43828 h 1.99327 q 1.19456,0 1.8613,-0.96538 0.67368,-0.96538 0.67368,-2.74334 z"
         id="path32927" />
      <path
         d="m 167.54773,149.21765 h -5.79227 v -9.06344 h 5.79227 v 0.81258 h -4.84078 v 3.2434 h 3.56981 v 0.81258 h -3.56981 v 3.3823 h 4.84078 z"
         id="path32929" />
      <path
         d="m 175.73608,149.21765 h -1.20846 l -2.64611,-3.88235 h -1.40987 v 3.88235 h -0.95149 v -9.06344 h 2.98642 q 1.49322,0 2.31274,0.65285 0.81953,0.6459 0.81953,1.9377 0,0.5695 -0.20141,1.02788 -0.20141,0.45144 -0.54866,0.77091 -0.34726,0.31948 -0.83342,0.51395 -0.47922,0.19446 -1.04872,0.23613 z m -1.08345,-6.47289 q 0,-0.92371 -0.57645,-1.34737 -0.5695,-0.4306 -1.56961,-0.4306 h -2.03493 v 3.55593 h 2.03493 q 1.00011,0 1.56961,-0.41671 0.57645,-0.42366 0.57645,-1.36125 z"
         id="path32931" />
    </g>
  </g>
</svg>
